<mxfile host="app.diagrams.net" modified="2024-03-19T10:39:03.180Z" agent="Mozilla/5.0 (Windows NT 10.0; Win64; x64; rv:123.0) Gecko/20100101 Firefox/123.0" etag="VWO7Lk5SldREpuebjtsd" version="24.0.7" type="device">
  <diagram name="Pagina-1" id="nWDw0S2ICuR4OczdVEyi">
    <mxGraphModel dx="1177" dy="186" grid="1" gridSize="10" guides="1" tooltips="1" connect="1" arrows="1" fold="1" page="1" pageScale="1" pageWidth="827" pageHeight="1169" math="0" shadow="0">
      <root>
        <mxCell id="0" />
        <mxCell id="1" parent="0" />
        <mxCell id="LSVWAHJbNo_uzlFZOcrg-1" value="Utente" style="whiteSpace=wrap;html=1;align=center;" vertex="1" parent="1">
          <mxGeometry x="160" y="160" width="80" height="40" as="geometry" />
        </mxCell>
        <mxCell id="LSVWAHJbNo_uzlFZOcrg-3" value="" style="edgeStyle=orthogonalEdgeStyle;rounded=0;orthogonalLoop=1;jettySize=auto;html=1;endArrow=none;endFill=0;" edge="1" parent="1" source="LSVWAHJbNo_uzlFZOcrg-2" target="LSVWAHJbNo_uzlFZOcrg-1">
          <mxGeometry relative="1" as="geometry" />
        </mxCell>
        <mxCell id="LSVWAHJbNo_uzlFZOcrg-5" value="" style="edgeStyle=orthogonalEdgeStyle;rounded=0;orthogonalLoop=1;jettySize=auto;html=1;endArrow=none;endFill=0;" edge="1" parent="1" source="LSVWAHJbNo_uzlFZOcrg-2" target="LSVWAHJbNo_uzlFZOcrg-4">
          <mxGeometry relative="1" as="geometry" />
        </mxCell>
        <mxCell id="LSVWAHJbNo_uzlFZOcrg-2" value="Compone" style="shape=rhombus;perimeter=rhombusPerimeter;whiteSpace=wrap;html=1;align=center;" vertex="1" parent="1">
          <mxGeometry x="280" y="160" width="120" height="40" as="geometry" />
        </mxCell>
        <mxCell id="LSVWAHJbNo_uzlFZOcrg-4" value="Carrello" style="whiteSpace=wrap;html=1;align=center;" vertex="1" parent="1">
          <mxGeometry x="440" y="160" width="80" height="40" as="geometry" />
        </mxCell>
        <mxCell id="LSVWAHJbNo_uzlFZOcrg-10" style="edgeStyle=orthogonalEdgeStyle;rounded=0;orthogonalLoop=1;jettySize=auto;html=1;entryX=0.5;entryY=0;entryDx=0;entryDy=0;shape=flexArrow;fillColor=#000000;strokeColor=default;gradientColor=none;gradientDirection=north;fillStyle=auto;" edge="1" parent="1" source="LSVWAHJbNo_uzlFZOcrg-7" target="LSVWAHJbNo_uzlFZOcrg-1">
          <mxGeometry relative="1" as="geometry" />
        </mxCell>
        <mxCell id="LSVWAHJbNo_uzlFZOcrg-7" value="Admin" style="whiteSpace=wrap;html=1;align=center;" vertex="1" parent="1">
          <mxGeometry x="110" y="60" width="80" height="40" as="geometry" />
        </mxCell>
        <mxCell id="LSVWAHJbNo_uzlFZOcrg-11" style="edgeStyle=orthogonalEdgeStyle;rounded=0;orthogonalLoop=1;jettySize=auto;html=1;entryX=0.5;entryY=0;entryDx=0;entryDy=0;shape=flexArrow;fillColor=#000000;" edge="1" parent="1" source="LSVWAHJbNo_uzlFZOcrg-8" target="LSVWAHJbNo_uzlFZOcrg-1">
          <mxGeometry relative="1" as="geometry" />
        </mxCell>
        <mxCell id="LSVWAHJbNo_uzlFZOcrg-8" value="Cliente" style="whiteSpace=wrap;html=1;align=center;" vertex="1" parent="1">
          <mxGeometry x="210" y="60" width="80" height="40" as="geometry" />
        </mxCell>
        <mxCell id="LSVWAHJbNo_uzlFZOcrg-15" value="" style="edgeStyle=orthogonalEdgeStyle;rounded=0;orthogonalLoop=1;jettySize=auto;html=1;endArrow=none;endFill=0;" edge="1" parent="1" source="LSVWAHJbNo_uzlFZOcrg-12" target="LSVWAHJbNo_uzlFZOcrg-13">
          <mxGeometry relative="1" as="geometry" />
        </mxCell>
        <mxCell id="LSVWAHJbNo_uzlFZOcrg-12" value="Pet" style="whiteSpace=wrap;html=1;align=center;" vertex="1" parent="1">
          <mxGeometry x="-120" y="160" width="80" height="40" as="geometry" />
        </mxCell>
        <mxCell id="LSVWAHJbNo_uzlFZOcrg-14" value="" style="edgeStyle=orthogonalEdgeStyle;rounded=0;orthogonalLoop=1;jettySize=auto;html=1;endArrow=none;endFill=0;" edge="1" parent="1" source="LSVWAHJbNo_uzlFZOcrg-13" target="LSVWAHJbNo_uzlFZOcrg-1">
          <mxGeometry relative="1" as="geometry" />
        </mxCell>
        <mxCell id="LSVWAHJbNo_uzlFZOcrg-13" value="Possiede" style="shape=rhombus;perimeter=rhombusPerimeter;whiteSpace=wrap;html=1;align=center;" vertex="1" parent="1">
          <mxGeometry y="160" width="120" height="40" as="geometry" />
        </mxCell>
        <mxCell id="LSVWAHJbNo_uzlFZOcrg-17" value="" style="edgeStyle=orthogonalEdgeStyle;rounded=0;orthogonalLoop=1;jettySize=auto;html=1;endArrow=none;endFill=0;" edge="1" parent="1" source="LSVWAHJbNo_uzlFZOcrg-16" target="LSVWAHJbNo_uzlFZOcrg-1">
          <mxGeometry relative="1" as="geometry" />
        </mxCell>
        <mxCell id="LSVWAHJbNo_uzlFZOcrg-16" value="Recensisce" style="shape=rhombus;perimeter=rhombusPerimeter;whiteSpace=wrap;html=1;align=center;" vertex="1" parent="1">
          <mxGeometry x="140" y="240" width="120" height="40" as="geometry" />
        </mxCell>
        <mxCell id="LSVWAHJbNo_uzlFZOcrg-21" value="" style="edgeStyle=orthogonalEdgeStyle;rounded=0;orthogonalLoop=1;jettySize=auto;html=1;endArrow=none;endFill=0;" edge="1" parent="1" source="LSVWAHJbNo_uzlFZOcrg-20" target="LSVWAHJbNo_uzlFZOcrg-16">
          <mxGeometry relative="1" as="geometry">
            <Array as="points">
              <mxPoint x="200" y="300" />
              <mxPoint x="200" y="300" />
            </Array>
          </mxGeometry>
        </mxCell>
        <mxCell id="LSVWAHJbNo_uzlFZOcrg-25" style="edgeStyle=orthogonalEdgeStyle;rounded=0;orthogonalLoop=1;jettySize=auto;html=1;exitX=1;exitY=0.5;exitDx=0;exitDy=0;entryX=0;entryY=0.5;entryDx=0;entryDy=0;endArrow=none;endFill=0;" edge="1" parent="1" source="LSVWAHJbNo_uzlFZOcrg-20" target="LSVWAHJbNo_uzlFZOcrg-24">
          <mxGeometry relative="1" as="geometry" />
        </mxCell>
        <mxCell id="LSVWAHJbNo_uzlFZOcrg-74" style="edgeStyle=orthogonalEdgeStyle;rounded=0;orthogonalLoop=1;jettySize=auto;html=1;exitX=0.5;exitY=1;exitDx=0;exitDy=0;entryX=0;entryY=0.5;entryDx=0;entryDy=0;endArrow=none;endFill=0;" edge="1" parent="1" source="LSVWAHJbNo_uzlFZOcrg-20" target="LSVWAHJbNo_uzlFZOcrg-72">
          <mxGeometry relative="1" as="geometry" />
        </mxCell>
        <mxCell id="LSVWAHJbNo_uzlFZOcrg-20" value="Prodotto" style="whiteSpace=wrap;html=1;align=center;" vertex="1" parent="1">
          <mxGeometry x="160" y="320" width="80" height="40" as="geometry" />
        </mxCell>
        <mxCell id="LSVWAHJbNo_uzlFZOcrg-26" value="" style="edgeStyle=orthogonalEdgeStyle;rounded=0;orthogonalLoop=1;jettySize=auto;html=1;endArrow=none;endFill=0;" edge="1" parent="1" source="LSVWAHJbNo_uzlFZOcrg-24" target="LSVWAHJbNo_uzlFZOcrg-4">
          <mxGeometry relative="1" as="geometry" />
        </mxCell>
        <mxCell id="LSVWAHJbNo_uzlFZOcrg-24" value="Composto" style="shape=rhombus;perimeter=rhombusPerimeter;whiteSpace=wrap;html=1;align=center;" vertex="1" parent="1">
          <mxGeometry x="280" y="320" width="120" height="40" as="geometry" />
        </mxCell>
        <mxCell id="LSVWAHJbNo_uzlFZOcrg-49" style="edgeStyle=orthogonalEdgeStyle;rounded=0;orthogonalLoop=1;jettySize=auto;html=1;exitX=1;exitY=0.5;exitDx=0;exitDy=0;entryX=0;entryY=0.5;entryDx=0;entryDy=0;shape=flexArrow;fillColor=#000000;" edge="1" parent="1" source="LSVWAHJbNo_uzlFZOcrg-27" target="LSVWAHJbNo_uzlFZOcrg-20">
          <mxGeometry relative="1" as="geometry">
            <Array as="points">
              <mxPoint x="110" y="390" />
              <mxPoint x="110" y="340" />
            </Array>
          </mxGeometry>
        </mxCell>
        <mxCell id="LSVWAHJbNo_uzlFZOcrg-27" value="Cibo" style="whiteSpace=wrap;html=1;align=center;direction=east;" vertex="1" parent="1">
          <mxGeometry y="370" width="80" height="40" as="geometry" />
        </mxCell>
        <mxCell id="LSVWAHJbNo_uzlFZOcrg-28" value="Vestiario" style="whiteSpace=wrap;html=1;align=center;direction=east;" vertex="1" parent="1">
          <mxGeometry y="320" width="80" height="40" as="geometry" />
        </mxCell>
        <mxCell id="LSVWAHJbNo_uzlFZOcrg-50" style="edgeStyle=orthogonalEdgeStyle;rounded=0;orthogonalLoop=1;jettySize=auto;html=1;exitX=1;exitY=0.5;exitDx=0;exitDy=0;shape=flexArrow;fillColor=#000000;" edge="1" parent="1" source="LSVWAHJbNo_uzlFZOcrg-29">
          <mxGeometry relative="1" as="geometry">
            <mxPoint x="160" y="340" as="targetPoint" />
            <Array as="points">
              <mxPoint x="110" y="290" />
              <mxPoint x="110" y="340" />
            </Array>
          </mxGeometry>
        </mxCell>
        <mxCell id="LSVWAHJbNo_uzlFZOcrg-29" value="Giocattoli" style="whiteSpace=wrap;html=1;align=center;direction=east;" vertex="1" parent="1">
          <mxGeometry y="270" width="80" height="40" as="geometry" />
        </mxCell>
        <mxCell id="LSVWAHJbNo_uzlFZOcrg-34" value="" style="edgeStyle=orthogonalEdgeStyle;rounded=0;orthogonalLoop=1;jettySize=auto;html=1;endArrow=none;endFill=0;entryX=1;entryY=0.5;entryDx=0;entryDy=0;exitX=0.5;exitY=0;exitDx=0;exitDy=0;" edge="1" parent="1" source="LSVWAHJbNo_uzlFZOcrg-33" target="LSVWAHJbNo_uzlFZOcrg-4">
          <mxGeometry relative="1" as="geometry" />
        </mxCell>
        <mxCell id="LSVWAHJbNo_uzlFZOcrg-33" value="Finalizza" style="shape=rhombus;perimeter=rhombusPerimeter;whiteSpace=wrap;html=1;align=center;" vertex="1" parent="1">
          <mxGeometry x="540" y="240" width="120" height="40" as="geometry" />
        </mxCell>
        <mxCell id="LSVWAHJbNo_uzlFZOcrg-36" value="" style="edgeStyle=orthogonalEdgeStyle;rounded=0;orthogonalLoop=1;jettySize=auto;html=1;endArrow=none;endFill=0;exitX=0.5;exitY=0;exitDx=0;exitDy=0;" edge="1" parent="1" source="LSVWAHJbNo_uzlFZOcrg-35" target="LSVWAHJbNo_uzlFZOcrg-33">
          <mxGeometry relative="1" as="geometry">
            <mxPoint x="600" y="370" as="sourcePoint" />
          </mxGeometry>
        </mxCell>
        <mxCell id="LSVWAHJbNo_uzlFZOcrg-73" style="edgeStyle=orthogonalEdgeStyle;rounded=0;orthogonalLoop=1;jettySize=auto;html=1;exitX=0;exitY=0.5;exitDx=0;exitDy=0;entryX=1;entryY=0.5;entryDx=0;entryDy=0;endArrow=none;endFill=0;" edge="1" parent="1" source="LSVWAHJbNo_uzlFZOcrg-35" target="LSVWAHJbNo_uzlFZOcrg-72">
          <mxGeometry relative="1" as="geometry" />
        </mxCell>
        <mxCell id="LSVWAHJbNo_uzlFZOcrg-35" value="Ordine" style="whiteSpace=wrap;html=1;align=center;" vertex="1" parent="1">
          <mxGeometry x="560" y="380" width="80" height="40" as="geometry" />
        </mxCell>
        <mxCell id="LSVWAHJbNo_uzlFZOcrg-48" value="" style="edgeStyle=orthogonalEdgeStyle;rounded=0;orthogonalLoop=1;jettySize=auto;html=1;shape=flexArrow;fillColor=#000000;entryX=0;entryY=0.5;entryDx=0;entryDy=0;exitX=1;exitY=0.5;exitDx=0;exitDy=0;" edge="1" parent="1" source="LSVWAHJbNo_uzlFZOcrg-28" target="LSVWAHJbNo_uzlFZOcrg-20">
          <mxGeometry relative="1" as="geometry">
            <mxPoint x="20" y="340" as="sourcePoint" />
            <mxPoint x="20" y="280" as="targetPoint" />
          </mxGeometry>
        </mxCell>
        <mxCell id="LSVWAHJbNo_uzlFZOcrg-51" value="" style="edgeStyle=orthogonalEdgeStyle;rounded=0;orthogonalLoop=1;jettySize=auto;html=1;endArrow=none;endFill=0;" edge="1" parent="1" source="LSVWAHJbNo_uzlFZOcrg-52" target="LSVWAHJbNo_uzlFZOcrg-53">
          <mxGeometry relative="1" as="geometry" />
        </mxCell>
        <mxCell id="LSVWAHJbNo_uzlFZOcrg-52" value="Fattura" style="whiteSpace=wrap;html=1;align=center;" vertex="1" parent="1">
          <mxGeometry x="710" y="450" width="80" height="40" as="geometry" />
        </mxCell>
        <mxCell id="LSVWAHJbNo_uzlFZOcrg-54" value="" style="edgeStyle=orthogonalEdgeStyle;rounded=0;orthogonalLoop=1;jettySize=auto;html=1;endArrow=none;endFill=0;" edge="1" parent="1" source="LSVWAHJbNo_uzlFZOcrg-53" target="LSVWAHJbNo_uzlFZOcrg-35">
          <mxGeometry relative="1" as="geometry" />
        </mxCell>
        <mxCell id="LSVWAHJbNo_uzlFZOcrg-53" value="Collegata" style="shape=rhombus;perimeter=rhombusPerimeter;whiteSpace=wrap;html=1;align=center;" vertex="1" parent="1">
          <mxGeometry x="540" y="450" width="120" height="40" as="geometry" />
        </mxCell>
        <mxCell id="LSVWAHJbNo_uzlFZOcrg-55" value="(0,N)" style="text;html=1;align=right;verticalAlign=bottom;resizable=0;points=[];autosize=1;strokeColor=none;fillColor=none;" vertex="1" parent="1">
          <mxGeometry x="110" y="150" width="50" height="30" as="geometry" />
        </mxCell>
        <mxCell id="LSVWAHJbNo_uzlFZOcrg-56" value="(1,1)" style="text;html=1;align=left;verticalAlign=bottom;resizable=0;points=[];autosize=1;strokeColor=none;fillColor=none;" vertex="1" parent="1">
          <mxGeometry x="-40" y="150" width="50" height="30" as="geometry" />
        </mxCell>
        <mxCell id="LSVWAHJbNo_uzlFZOcrg-61" value="(1,1)" style="text;html=1;align=left;verticalAlign=bottom;resizable=0;points=[];autosize=1;strokeColor=none;fillColor=none;" vertex="1" parent="1">
          <mxGeometry x="240" y="150" width="50" height="30" as="geometry" />
        </mxCell>
        <mxCell id="LSVWAHJbNo_uzlFZOcrg-62" value="(1,1)" style="text;html=1;align=right;verticalAlign=bottom;resizable=0;points=[];autosize=1;strokeColor=none;fillColor=none;" vertex="1" parent="1">
          <mxGeometry x="390" y="150" width="50" height="30" as="geometry" />
        </mxCell>
        <mxCell id="LSVWAHJbNo_uzlFZOcrg-63" value="(0,N)" style="text;html=1;align=right;verticalAlign=top;resizable=0;points=[];autosize=1;strokeColor=none;fillColor=none;" vertex="1" parent="1">
          <mxGeometry x="430" y="200" width="50" height="30" as="geometry" />
        </mxCell>
        <mxCell id="LSVWAHJbNo_uzlFZOcrg-64" value="(0,N)" style="text;html=1;align=left;verticalAlign=bottom;resizable=0;points=[];autosize=1;strokeColor=none;fillColor=none;" vertex="1" parent="1">
          <mxGeometry x="240" y="310" width="50" height="30" as="geometry" />
        </mxCell>
        <mxCell id="LSVWAHJbNo_uzlFZOcrg-65" value="(0,N)" style="text;html=1;align=left;verticalAlign=top;resizable=0;points=[];autosize=1;strokeColor=none;fillColor=none;" vertex="1" parent="1">
          <mxGeometry x="200" y="200" width="50" height="30" as="geometry" />
        </mxCell>
        <mxCell id="LSVWAHJbNo_uzlFZOcrg-66" value="(0,N)" style="text;html=1;align=left;verticalAlign=bottom;resizable=0;points=[];autosize=1;strokeColor=none;fillColor=none;" vertex="1" parent="1">
          <mxGeometry x="200" y="290" width="50" height="30" as="geometry" />
        </mxCell>
        <mxCell id="LSVWAHJbNo_uzlFZOcrg-67" value="(0,1)" style="text;html=1;align=left;verticalAlign=bottom;resizable=0;points=[];autosize=1;strokeColor=none;fillColor=none;" vertex="1" parent="1">
          <mxGeometry x="520" y="150" width="50" height="30" as="geometry" />
        </mxCell>
        <mxCell id="LSVWAHJbNo_uzlFZOcrg-68" value="(1,1)" style="text;html=1;align=right;verticalAlign=bottom;resizable=0;points=[];autosize=1;strokeColor=none;fillColor=none;" vertex="1" parent="1">
          <mxGeometry x="550" y="350" width="50" height="30" as="geometry" />
        </mxCell>
        <mxCell id="LSVWAHJbNo_uzlFZOcrg-69" value="(1,1)" style="text;html=1;align=left;verticalAlign=top;resizable=0;points=[];autosize=1;strokeColor=none;fillColor=none;" vertex="1" parent="1">
          <mxGeometry x="600" y="420" width="50" height="30" as="geometry" />
        </mxCell>
        <mxCell id="LSVWAHJbNo_uzlFZOcrg-70" value="(1,1)" style="text;html=1;align=right;verticalAlign=bottom;resizable=0;points=[];autosize=1;strokeColor=none;fillColor=none;" vertex="1" parent="1">
          <mxGeometry x="660" y="440" width="50" height="30" as="geometry" />
        </mxCell>
        <mxCell id="LSVWAHJbNo_uzlFZOcrg-72" value="Contiene" style="shape=rhombus;perimeter=rhombusPerimeter;whiteSpace=wrap;html=1;align=center;" vertex="1" parent="1">
          <mxGeometry x="280" y="380" width="120" height="40" as="geometry" />
        </mxCell>
        <mxCell id="LSVWAHJbNo_uzlFZOcrg-75" value="(1,N)" style="text;html=1;align=right;verticalAlign=bottom;resizable=0;points=[];autosize=1;strokeColor=none;fillColor=none;" vertex="1" parent="1">
          <mxGeometry x="510" y="370" width="50" height="30" as="geometry" />
        </mxCell>
        <mxCell id="LSVWAHJbNo_uzlFZOcrg-76" value="(0,N)" style="text;html=1;align=left;verticalAlign=top;resizable=0;points=[];autosize=1;strokeColor=none;fillColor=none;" vertex="1" parent="1">
          <mxGeometry x="200" y="360" width="50" height="30" as="geometry" />
        </mxCell>
      </root>
    </mxGraphModel>
  </diagram>
</mxfile>
